<svg xmlns="http://www.w3.org/2000/svg" viewBox="0 0 2200 920" font-family="'Courier New','SF Mono','Consolas',monospace">
  <defs>
    <marker id="a" markerWidth="8" markerHeight="6" refX="8" refY="3" orient="auto"><polygon points="0 0,8 3,0 6" fill="#333"/></marker>
    <marker id="al" markerWidth="8" markerHeight="6" refX="8" refY="3" orient="auto"><polygon points="0 0,8 3,0 6" fill="#999"/></marker>
    <pattern id="h" patternUnits="userSpaceOnUse" width="5" height="5" patternTransform="rotate(45)"><line x1="0" y1="0" x2="0" y2="5" stroke="#ddd" stroke-width="1"/></pattern>
  </defs>

  <rect width="2200" height="920" fill="#fff"/>

  <!-- Title bar -->
  <rect width="2200" height="36" fill="#222"/>
  <text x="1100" y="24" text-anchor="middle" fill="#fff" font-size="14" font-weight="700" letter-spacing="2">PLANNING &amp; EXECUTING AGENT PIPELINE  —  §3.1.1 / §3.1.2</text>

  <!-- Horizontal spine -->
  <line x1="40" y1="460" x2="2160" y2="460" stroke="#e0e0e0" stroke-width="1" stroke-dasharray="4,4"/>

  <!-- ═══ COL 0: USER INPUT ═══ -->
  <rect x="30" y="54" width="200" height="830" rx="2" fill="#fff" stroke="#333" stroke-width="2"/>
  <rect x="30" y="54" width="200" height="22" rx="2" fill="#333"/>
  <text x="130" y="70" text-anchor="middle" fill="#fff" font-size="11" font-weight="700">0  INPUT</text>
  <text x="130" y="100" text-anchor="middle" fill="#222" font-size="11" font-weight="700">User / Scenario</text>
  <text x="130" y="116" text-anchor="middle" fill="#555" font-size="10">Queries &amp; scenario</text>
  <text x="130" y="130" text-anchor="middle" fill="#555" font-size="10">modification requests</text>
  <line x1="50" y1="142" x2="210" y2="142" stroke="#ddd" stroke-width="0.5"/>
  <rect x="44" y="152" width="88" height="18" rx="2" fill="#f0f0f0" stroke="#bbb" stroke-width="0.6"/>
  <text x="88" y="165" text-anchor="middle" fill="#444" font-size="9" font-weight="600">Characteriz.</text>
  <rect x="138" y="152" width="80" height="18" rx="2" fill="#f0f0f0" stroke="#bbb" stroke-width="0.6"/>
  <text x="178" y="165" text-anchor="middle" fill="#444" font-size="9" font-weight="600">Monitoring</text>
  <rect x="44" y="176" width="88" height="18" rx="2" fill="#f0f0f0" stroke="#bbb" stroke-width="0.6"/>
  <text x="88" y="189" text-anchor="middle" fill="#444" font-size="9" font-weight="600">Remediation</text>
  <rect x="138" y="176" width="80" height="18" rx="2" fill="#f0f0f0" stroke="#bbb" stroke-width="0.6"/>
  <text x="178" y="189" text-anchor="middle" fill="#444" font-size="9" font-weight="600">Waste Mgmt</text>

  <!-- Arrow 0→1 -->
  <line x1="230" y1="460" x2="258" y2="460" stroke="#333" stroke-width="2" marker-end="url(#a)"/>

  <!-- ═══ COL 1: SUPERVISOR ═══ -->
  <rect x="260" y="54" width="280" height="830" rx="2" fill="#fff" stroke="#333" stroke-width="2"/>
  <rect x="260" y="54" width="280" height="22" rx="2" fill="#333"/>
  <text x="400" y="70" text-anchor="middle" fill="#fff" font-size="11" font-weight="700">1  SUPERVISOR</text>

  <rect x="274" y="86" width="252" height="62" rx="2" fill="#fff" stroke="#666" stroke-width="1"/>
  <text x="400" y="104" text-anchor="middle" fill="#222" font-size="11" font-weight="700">Chain-of-Thought</text>
  <text x="400" y="118" text-anchor="middle" fill="#222" font-size="11" font-weight="700">Constrainer</text>
  <text x="400" y="136" text-anchor="middle" fill="#777" font-size="9">HIL-constrained reasoning</text>

  <rect x="274" y="158" width="252" height="50" rx="2" fill="#fff" stroke="#666" stroke-width="1"/>
  <text x="400" y="176" text-anchor="middle" fill="#222" font-size="11" font-weight="700">Workflow Coordinator</text>
  <text x="400" y="194" text-anchor="middle" fill="#777" font-size="9">Agent &amp; workflow routing</text>

  <rect x="274" y="218" width="252" height="50" rx="2" fill="#fff" stroke="#666" stroke-width="1"/>
  <text x="400" y="236" text-anchor="middle" fill="#222" font-size="11" font-weight="700">AutoGen Multi-Agent</text>
  <text x="400" y="254" text-anchor="middle" fill="#777" font-size="9">Modular conversation patterns</text>

  <rect x="274" y="278" width="252" height="50" rx="2" fill="url(#h)" stroke="#555" stroke-width="1.2" stroke-dasharray="5,3"/>
  <text x="400" y="296" text-anchor="middle" fill="#222" font-size="11" font-weight="700">HIL Gate</text>
  <text x="400" y="312" text-anchor="middle" fill="#555" font-size="9">Expert review: high-uncert.</text>

  <rect x="274" y="338" width="252" height="16" rx="2" fill="none" stroke="#888" stroke-width="0.8" stroke-dasharray="3,2"/>
  <text x="400" y="350" text-anchor="middle" fill="#888" font-size="9" font-weight="600">HIL all decision cycles</text>

  <!-- Arrow 1→2 -->
  <line x1="540" y1="460" x2="568" y2="460" stroke="#333" stroke-width="2" marker-end="url(#a)"/>
  <text x="554" y="452" text-anchor="middle" fill="#666" font-size="8" font-weight="700">dispatch</text>

  <!-- ═══ COL 2: PLANNING AGENT ═══ -->
  <rect x="570" y="54" width="280" height="830" rx="2" fill="#fff" stroke="#333" stroke-width="2"/>
  <rect x="570" y="54" width="280" height="22" rx="2" fill="#555"/>
  <text x="710" y="70" text-anchor="middle" fill="#fff" font-size="11" font-weight="700">2  PLANNING / TASK SPEC</text>

  <rect x="584" y="86" width="252" height="80" rx="2" fill="#fff" stroke="#666" stroke-width="1"/>
  <text x="710" y="104" text-anchor="middle" fill="#222" font-size="11" font-weight="700">Intent Classification</text>
  <rect x="592" y="112" width="114" height="16" rx="2" fill="#f0f0f0" stroke="#aaa" stroke-width="0.6"/>
  <text x="649" y="124" text-anchor="middle" fill="#444" font-size="8" font-weight="600">Exploratory EDA</text>
  <rect x="714" y="112" width="114" height="16" rx="2" fill="#f0f0f0" stroke="#aaa" stroke-width="0.6"/>
  <text x="771" y="124" text-anchor="middle" fill="#444" font-size="8" font-weight="600">Intervention Eval</text>
  <rect x="592" y="134" width="114" height="16" rx="2" fill="#f0f0f0" stroke="#aaa" stroke-width="0.6"/>
  <text x="649" y="146" text-anchor="middle" fill="#444" font-size="8" font-weight="600">Anomaly Investig.</text>
  <rect x="714" y="134" width="114" height="16" rx="2" fill="#f0f0f0" stroke="#aaa" stroke-width="0.6"/>
  <text x="771" y="146" text-anchor="middle" fill="#444" font-size="8" font-weight="600">Compliance Asmt</text>

  <rect x="584" y="176" width="252" height="62" rx="2" fill="#fff" stroke="#666" stroke-width="1"/>
  <text x="710" y="194" text-anchor="middle" fill="#222" font-size="11" font-weight="700">Adaptive Autonomy</text>
  <text x="710" y="210" text-anchor="middle" fill="#555" font-size="9">novelty · sensitivity · uncert.</text>
  <text x="710" y="226" text-anchor="middle" fill="#555" font-size="9">historical performance</text>

  <rect x="584" y="248" width="252" height="50" rx="2" fill="#fff" stroke="#666" stroke-width="1"/>
  <text x="710" y="266" text-anchor="middle" fill="#222" font-size="11" font-weight="700">Objective Formalization</text>
  <text x="710" y="282" text-anchor="middle" fill="#555" font-size="9">Constraints · tool &amp; agent select</text>

  <rect x="584" y="308" width="252" height="50" rx="2" fill="url(#h)" stroke="#555" stroke-width="1.2" stroke-dasharray="5,3"/>
  <text x="710" y="326" text-anchor="middle" fill="#222" font-size="11" font-weight="700">Sheridan-Verplank</text>
  <text x="710" y="342" text-anchor="middle" fill="#555" font-size="9">LOW→auto | HIGH→oversight</text>

  <!-- Arrow 2→3 -->
  <line x1="850" y1="460" x2="878" y2="460" stroke="#333" stroke-width="2" marker-end="url(#a)"/>
  <text x="864" y="452" text-anchor="middle" fill="#666" font-size="8" font-weight="700">exec_plan</text>

  <!-- ═══ COL 3: KNOWLEDGE INTEGRATION ═══ -->
  <rect x="880" y="54" width="320" height="830" rx="2" fill="#fff" stroke="#333" stroke-width="2"/>
  <rect x="880" y="54" width="320" height="22" rx="2" fill="#888"/>
  <text x="1040" y="70" text-anchor="middle" fill="#fff" font-size="11" font-weight="700">3  KNOWLEDGE LAYER</text>

  <!-- 3 data layers -->
  <rect x="894" y="86" width="292" height="80" rx="2" fill="#fff" stroke="#666" stroke-width="1"/>
  <text x="1040" y="102" text-anchor="middle" fill="#222" font-size="11" font-weight="700">3 Data Layers</text>
  <rect x="902" y="110" width="88" height="28" rx="2" fill="#f5f5f5" stroke="#999" stroke-width="0.6"/>
  <text x="946" y="128" text-anchor="middle" fill="#333" font-size="9" font-weight="600">Foundation</text>
  <rect x="996" y="110" width="88" height="28" rx="2" fill="#f5f5f5" stroke="#999" stroke-width="0.6"/>
  <text x="1040" y="128" text-anchor="middle" fill="#333" font-size="9" font-weight="600">Knowledge</text>
  <rect x="1090" y="110" width="88" height="28" rx="2" fill="#f5f5f5" stroke="#999" stroke-width="0.6"/>
  <text x="1134" y="128" text-anchor="middle" fill="#333" font-size="9" font-weight="600">Crawling</text>
  <text x="1040" y="156" text-anchor="middle" fill="#777" font-size="9">+ Task 2 Env. Modeling</text>

  <!-- Scenario KG -->
  <rect x="894" y="176" width="292" height="62" rx="2" fill="#fff" stroke="#666" stroke-width="1"/>
  <text x="1040" y="194" text-anchor="middle" fill="#222" font-size="11" font-weight="700">Scenario Knowledge Graph</text>
  <text x="1040" y="210" text-anchor="middle" fill="#555" font-size="9">Dynamic per query · HIL-refined</text>
  <text x="1040" y="226" text-anchor="middle" fill="#555" font-size="9">Unified multi-domain</text>

  <!-- Embedding -->
  <rect x="894" y="248" width="292" height="62" rx="2" fill="#fff" stroke="#666" stroke-width="1"/>
  <text x="1040" y="264" text-anchor="middle" fill="#222" font-size="11" font-weight="700">Embedding &amp; Hybrid Retrieval</text>
  <text x="1040" y="280" text-anchor="middle" fill="#555" font-size="9">Sentence Transformers (adapted)</text>
  <text x="1040" y="296" text-anchor="middle" fill="#555" font-size="9">Sparse-dense vector store</text>

  <!-- Provenance -->
  <rect x="894" y="320" width="292" height="50" rx="2" fill="#fff" stroke="#666" stroke-width="1"/>
  <text x="1040" y="338" text-anchor="middle" fill="#222" font-size="11" font-weight="700">Provenance &amp; Lineage</text>
  <text x="1040" y="354" text-anchor="middle" fill="#555" font-size="9">Source · version · CoT audit</text>

  <!-- Temporal -->
  <rect x="894" y="380" width="292" height="42" rx="2" fill="#fff" stroke="#666" stroke-width="1"/>
  <text x="1040" y="398" text-anchor="middle" fill="#222" font-size="11" font-weight="700">Temporal Versioning</text>
  <text x="1040" y="412" text-anchor="middle" fill="#555" font-size="9">Time-stamped KG snapshots</text>

  <!-- Tags -->
  <rect x="894" y="432" width="92" height="16" rx="2" fill="#f0f0f0" stroke="#bbb" stroke-width="0.6"/>
  <text x="940" y="444" text-anchor="middle" fill="#444" font-size="8" font-weight="600">mRAG</text>
  <rect x="992" y="432" width="92" height="16" rx="2" fill="#f0f0f0" stroke="#bbb" stroke-width="0.6"/>
  <text x="1038" y="444" text-anchor="middle" fill="#444" font-size="8" font-weight="600">Reg. Compl.</text>
  <rect x="1090" y="432" width="92" height="16" rx="2" fill="#f0f0f0" stroke="#bbb" stroke-width="0.6"/>
  <text x="1136" y="444" text-anchor="middle" fill="#444" font-size="8" font-weight="600">Img+Text</text>

  <!-- Arrow 3→4 -->
  <line x1="1200" y1="460" x2="1228" y2="460" stroke="#333" stroke-width="2" marker-end="url(#a)"/>
  <text x="1214" y="452" text-anchor="middle" fill="#666" font-size="8" font-weight="700">retrieve</text>

  <!-- ═══ COL 4: EXECUTING AGENTS ═══ -->
  <rect x="1230" y="54" width="260" height="830" rx="2" fill="#fff" stroke="#333" stroke-width="2"/>
  <rect x="1230" y="54" width="260" height="22" rx="2" fill="#333"/>
  <text x="1360" y="70" text-anchor="middle" fill="#fff" font-size="11" font-weight="700">4  EXECUTING AGENTS</text>

  <rect x="1244" y="86" width="232" height="70" rx="2" fill="#fff" stroke="#666" stroke-width="1"/>
  <rect x="1250" y="92" width="14" height="14" rx="2" fill="#333"/>
  <text x="1257" y="103" text-anchor="middle" fill="#fff" font-size="8" font-weight="700">C</text>
  <text x="1366" y="104" text-anchor="middle" fill="#222" font-size="11" font-weight="700">Characterization</text>
  <text x="1360" y="120" text-anchor="middle" fill="#555" font-size="9">Site analysis · contaminant ID</text>
  <text x="1360" y="134" text-anchor="middle" fill="#555" font-size="9">Spatial mapping · QA/QC</text>
  <text x="1360" y="148" text-anchor="middle" fill="#888" font-size="8">grounded</text>

  <rect x="1244" y="166" width="232" height="70" rx="2" fill="#fff" stroke="#666" stroke-width="1"/>
  <rect x="1250" y="172" width="14" height="14" rx="2" fill="#555"/>
  <text x="1257" y="183" text-anchor="middle" fill="#fff" font-size="8" font-weight="700">M</text>
  <text x="1366" y="184" text-anchor="middle" fill="#222" font-size="11" font-weight="700">Monitoring</text>
  <text x="1360" y="200" text-anchor="middle" fill="#555" font-size="9">Time-series · trend detection</text>
  <text x="1360" y="214" text-anchor="middle" fill="#555" font-size="9">Anomaly &amp; threshold alerts</text>
  <text x="1360" y="228" text-anchor="middle" fill="#888" font-size="8">temporal aware</text>

  <rect x="1244" y="246" width="232" height="70" rx="2" fill="#fff" stroke="#666" stroke-width="1"/>
  <rect x="1250" y="252" width="14" height="14" rx="2" fill="#777"/>
  <text x="1257" y="263" text-anchor="middle" fill="#fff" font-size="8" font-weight="700">R</text>
  <text x="1366" y="264" text-anchor="middle" fill="#222" font-size="11" font-weight="700">Remediation</text>
  <text x="1360" y="280" text-anchor="middle" fill="#555" font-size="9">Intervention eval &amp; planning</text>
  <text x="1360" y="294" text-anchor="middle" fill="#555" font-size="9">Treatment tech selection</text>
  <text x="1360" y="308" text-anchor="middle" fill="#888" font-size="8">compliance linked</text>

  <rect x="1244" y="326" width="232" height="70" rx="2" fill="#fff" stroke="#666" stroke-width="1"/>
  <rect x="1250" y="332" width="14" height="14" rx="2" fill="#aaa"/>
  <text x="1257" y="343" text-anchor="middle" fill="#fff" font-size="8" font-weight="700">W</text>
  <text x="1366" y="344" text-anchor="middle" fill="#222" font-size="11" font-weight="700">Waste Management</text>
  <text x="1360" y="360" text-anchor="middle" fill="#555" font-size="9">Classification &amp; disposition</text>
  <text x="1360" y="374" text-anchor="middle" fill="#555" font-size="9">Storage &amp; transport</text>
  <text x="1360" y="388" text-anchor="middle" fill="#888" font-size="8">provenance tracked</text>

  <!-- Arrow 4→5 -->
  <line x1="1490" y1="460" x2="1518" y2="460" stroke="#333" stroke-width="2" marker-end="url(#a)"/>
  <text x="1504" y="452" text-anchor="middle" fill="#666" font-size="8" font-weight="700">outputs</text>

  <!-- ═══ COL 5: DRIFT DETECTION ═══ -->
  <rect x="1520" y="54" width="230" height="830" rx="2" fill="#fff" stroke="#333" stroke-width="2"/>
  <rect x="1520" y="54" width="230" height="22" rx="2" fill="#aaa"/>
  <text x="1635" y="70" text-anchor="middle" fill="#fff" font-size="11" font-weight="700">5  DRIFT / RECALIB</text>

  <rect x="1534" y="86" width="202" height="56" rx="2" fill="#fff" stroke="#666" stroke-width="1"/>
  <text x="1635" y="104" text-anchor="middle" fill="#222" font-size="11" font-weight="700">Drift Detection</text>
  <text x="1635" y="120" text-anchor="middle" fill="#555" font-size="9">Distributional shift vs.</text>
  <text x="1635" y="132" text-anchor="middle" fill="#555" font-size="9">baseline embeddings</text>

  <rect x="1534" y="152" width="202" height="42" rx="2" fill="#fff" stroke="#666" stroke-width="1"/>
  <text x="1635" y="170" text-anchor="middle" fill="#222" font-size="11" font-weight="700">Targeted Re-Index</text>
  <text x="1635" y="184" text-anchor="middle" fill="#555" font-size="9">Agent recalibration</text>

  <rect x="1534" y="204" width="202" height="42" rx="2" fill="#fff" stroke="#555" stroke-width="1.2" stroke-dasharray="5,3"/>
  <text x="1635" y="222" text-anchor="middle" fill="#222" font-size="11" font-weight="700">Outlier Flagging</text>
  <text x="1635" y="236" text-anchor="middle" fill="#555" font-size="9">Auto-flag → human review</text>

  <rect x="1534" y="256" width="202" height="42" rx="2" fill="#fff" stroke="#666" stroke-width="1"/>
  <text x="1635" y="274" text-anchor="middle" fill="#222" font-size="11" font-weight="700">Stream Monitor</text>
  <text x="1635" y="288" text-anchor="middle" fill="#555" font-size="9">Incoming data &amp; docs</text>

  <!-- Arrow 5→6 -->
  <line x1="1750" y1="460" x2="1778" y2="460" stroke="#333" stroke-width="2" marker-end="url(#a)"/>

  <!-- ═══ COL 6: HIL REVIEW ═══ -->
  <rect x="1780" y="54" width="200" height="830" rx="2" fill="url(#h)" stroke="#333" stroke-width="2.5" stroke-dasharray="10,4"/>
  <rect x="1780" y="54" width="200" height="22" rx="2" fill="#333"/>
  <text x="1880" y="70" text-anchor="middle" fill="#fff" font-size="11" font-weight="700">6  HIL GATE</text>

  <rect x="1794" y="86" width="172" height="42" rx="2" fill="#fff" stroke="#666" stroke-width="1"/>
  <text x="1880" y="104" text-anchor="middle" fill="#222" font-size="11" font-weight="700">Supervised Review</text>
  <text x="1880" y="118" text-anchor="middle" fill="#555" font-size="9">CoT reconstruction</text>

  <rect x="1794" y="138" width="172" height="42" rx="2" fill="#fff" stroke="#666" stroke-width="1"/>
  <text x="1880" y="156" text-anchor="middle" fill="#222" font-size="11" font-weight="700">Evidence Verify</text>
  <text x="1880" y="170" text-anchor="middle" fill="#555" font-size="9">Source provenance</text>

  <rect x="1794" y="190" width="172" height="42" rx="2" fill="#fff" stroke="#666" stroke-width="1"/>
  <text x="1880" y="208" text-anchor="middle" fill="#222" font-size="11" font-weight="700">Outlier Resolve</text>
  <text x="1880" y="222" text-anchor="middle" fill="#555" font-size="9">Flagged adjudication</text>

  <rect x="1794" y="242" width="172" height="42" rx="2" fill="#fff" stroke="#555" stroke-width="1.5"/>
  <text x="1880" y="260" text-anchor="middle" fill="#222" font-size="11" font-weight="700">Approve / Reject</text>
  <text x="1880" y="274" text-anchor="middle" fill="#555" font-size="9" font-weight="600">Expert sign-off</text>

  <!-- Arrow 6→7 -->
  <line x1="1980" y1="460" x2="2008" y2="460" stroke="#333" stroke-width="2" marker-end="url(#a)"/>
  <text x="1994" y="452" text-anchor="middle" fill="#666" font-size="8" font-weight="700">approved</text>

  <!-- ═══ COL 7: OUTPUT ═══ -->
  <rect x="2010" y="54" width="160" height="830" rx="2" fill="#fff" stroke="#333" stroke-width="2.5"/>
  <rect x="2010" y="54" width="160" height="22" rx="2" fill="#222"/>
  <text x="2090" y="70" text-anchor="middle" fill="#fff" font-size="11" font-weight="700">7  OUTPUT</text>

  <text x="2090" y="100" text-anchor="middle" fill="#222" font-size="11" font-weight="700">Decision-Support</text>
  <text x="2090" y="116" text-anchor="middle" fill="#222" font-size="11" font-weight="700">Assessment</text>
  <line x1="2024" y1="126" x2="2156" y2="126" stroke="#ddd" stroke-width="0.5"/>
  <text x="2090" y="144" text-anchor="middle" fill="#555" font-size="9">Evidence-grounded</text>
  <text x="2090" y="158" text-anchor="middle" fill="#555" font-size="9">recommendations</text>
  <text x="2090" y="176" text-anchor="middle" fill="#555" font-size="9">Full provenance</text>
  <text x="2090" y="190" text-anchor="middle" fill="#555" font-size="9">&amp; audit trail</text>
  <line x1="2024" y1="200" x2="2156" y2="200" stroke="#ddd" stroke-width="0.5"/>
  <rect x="2030" y="210" width="120" height="16" rx="2" fill="#f0f0f0" stroke="#bbb" stroke-width="0.6"/>
  <text x="2090" y="222" text-anchor="middle" fill="#444" font-size="8" font-weight="600">QA/QC verified</text>
  <rect x="2030" y="232" width="120" height="16" rx="2" fill="#f0f0f0" stroke="#bbb" stroke-width="0.6"/>
  <text x="2090" y="244" text-anchor="middle" fill="#444" font-size="8" font-weight="600">Cross-source</text>
  <rect x="2030" y="254" width="120" height="16" rx="2" fill="#f0f0f0" stroke="#bbb" stroke-width="0.6"/>
  <text x="2090" y="266" text-anchor="middle" fill="#444" font-size="8" font-weight="600">Reg-aligned</text>

  <!-- ═══ FEEDBACK LOOPS (bottom section) ═══ -->

  <!-- Reject → re-plan (stage 6 → stage 2) -->
  <path d="M 1880 884 L 1880 900 L 710 900 L 710 884" fill="none" stroke="#555" stroke-width="1.5" stroke-dasharray="7,3" marker-end="url(#al)"/>
  <text x="1295" y="896" text-anchor="middle" fill="#666" font-size="9" font-weight="700">reject → re-plan</text>

  <!-- Drift → re-index (stage 5 → stage 3) -->
  <path d="M 1635 884 L 1635 868 L 1040 868 L 1040 884" fill="none" stroke="#888" stroke-width="1.5" stroke-dasharray="7,3" marker-end="url(#al)"/>
  <text x="1337" y="864" text-anchor="middle" fill="#888" font-size="9" font-weight="700">drift → re-index</text>

  <!-- KG refinement (stage 4 → stage 3) -->
  <path d="M 1360 834 L 1360 840 L 1040 840 L 1040 834" fill="none" stroke="#aaa" stroke-width="1.2" stroke-dasharray="5,3" marker-end="url(#al)"/>
  <text x="1200" y="836" text-anchor="middle" fill="#aaa" font-size="8" font-weight="600">KG refinement</text>

  <!-- ═══ LEGEND (compact, bottom-left) ═══ -->
  <rect x="30" y="500" width="200" height="176" rx="2" fill="#fff" stroke="#ccc" stroke-width="0.8"/>
  <rect x="30" y="500" width="200" height="16" rx="2" fill="#eee"/>
  <text x="130" y="512" text-anchor="middle" fill="#666" font-size="9" font-weight="700">LEGEND</text>

  <rect x="44" y="524" width="16" height="10" rx="1" fill="none" stroke="#333" stroke-width="1.5"/>
  <text x="68" y="533" fill="#444" font-size="9">Pipeline stage</text>

  <rect x="44" y="542" width="16" height="10" rx="1" fill="url(#h)" stroke="#555" stroke-width="1" stroke-dasharray="4,2"/>
  <text x="68" y="551" fill="#444" font-size="9">HIL checkpoint</text>

  <line x1="44" y1="564" x2="60" y2="564" stroke="#333" stroke-width="1.5" marker-end="url(#a)"/>
  <text x="68" y="568" fill="#444" font-size="9">Primary flow</text>

  <line x1="44" y1="582" x2="60" y2="582" stroke="#888" stroke-width="1.2" stroke-dasharray="7,3"/>
  <text x="68" y="586" fill="#444" font-size="9">Feedback loop</text>

  <rect x="44" y="596" width="16" height="10" rx="1" fill="#f0f0f0" stroke="#bbb" stroke-width="0.6"/>
  <text x="68" y="605" fill="#444" font-size="9">Capability tag</text>

  <rect x="44" y="614" width="12" height="12" rx="1" fill="#333"/>
  <text x="50" y="623" text-anchor="middle" fill="#fff" font-size="7" font-weight="700">N</text>
  <text x="68" y="624" fill="#444" font-size="9">Stage number</text>

  <line x1="44" y1="640" x2="60" y2="640" stroke="#ccc" stroke-width="1" stroke-dasharray="3,3"/>
  <text x="68" y="644" fill="#444" font-size="9">Pipeline spine</text>

  <text x="44" y="666" fill="#999" font-size="8">Stages 0→7 left to right</text>
</svg>